HIERARCHY
ROOT Hips
{
	OFFSET 0.000000 0.000000 0.000000 
	CHANNELS 6 Xposition Yposition Zposition Zrotation Yrotation Xrotation
	JOINT LeftUpLeg
	{
		OFFSET 1.363060 -1.794630 0.839290 
		CHANNELS 3 Zrotation Yrotation Xrotation
		JOINT LeftLeg
		{
			OFFSET 2.448110 -6.726130 0.000000 
			CHANNELS 3 Zrotation Yrotation Xrotation
			JOINT LeftFoot
			{
				OFFSET 2.562200 -7.039590 0.000000 
				CHANNELS 3 Zrotation Yrotation Xrotation
				JOINT LeftToeBase
				{
					OFFSET 0.157640 -0.433110 2.322550 
					CHANNELS 3 Zrotation Yrotation Xrotation
					End Site
					{
						OFFSET 0.000000 0.000000 0.000000 
					}
				}
			}
		}
	}
	JOINT RightUpLeg
	{
		OFFSET -1.305520 -1.794630 0.839290 
		CHANNELS 3 Zrotation Yrotation Xrotation
		JOINT RightLeg
		{
			OFFSET -2.542530 -6.985550 0.000000 
			CHANNELS 3 Zrotation Yrotation Xrotation
			JOINT RightFoot
			{
				OFFSET -2.568260 -7.056230 0.000000 
				CHANNELS 3 Zrotation Yrotation Xrotation
				JOINT RightToeBase
				{
					OFFSET -0.164730 -0.452590 2.363150 
					CHANNELS 3 Zrotation Yrotation Xrotation
					End Site
					{
						OFFSET 0.000000 0.000000 0.000000 
					}
				}
			}
		}
	}
	JOINT Spine
	{
		OFFSET 0.028270 2.035590 -0.193380 
		CHANNELS 3 Zrotation Yrotation Xrotation
		JOINT Spine1
		{
			OFFSET 0.056720 2.048850 -0.042750 
			CHANNELS 3 Zrotation Yrotation Xrotation
			JOINT Neck1
			{
				OFFSET -0.054170 1.746240 0.172020 
				CHANNELS 3 Zrotation Yrotation Xrotation
				JOINT Head
				{
					OFFSET 0.104070 1.761360 -0.123970 
					CHANNELS 3 Zrotation Yrotation Xrotation
					End Site
					{
						OFFSET 0.000000 0.000000 0.000000 
					}
				}
			}
			JOINT LeftArm
			{
				OFFSET 3.362410 1.200890 -0.311210 
				CHANNELS 3 Zrotation Yrotation Xrotation
				JOINT LeftForeArm
				{
					OFFSET 4.983000 -0.000000 -0.000000 
					CHANNELS 3 Zrotation Yrotation Xrotation
					JOINT LeftHand
					{
						OFFSET 3.483560 -0.000000 -0.000000 
						CHANNELS 3 Zrotation Yrotation Xrotation
						JOINT LeftHandIndex1
						{
							OFFSET 0.715260 -0.000000 -0.000000 
							CHANNELS 3 Zrotation Yrotation Xrotation
							End Site
							{
								OFFSET 0.000000 0.000000 0.000000 
							}
						}
					}
				}
			}
			JOINT RightArm
			{
				OFFSET -3.136600 1.374050 -0.404650 
				CHANNELS 3 Zrotation Yrotation Xrotation
				JOINT RightForeArm
				{
					OFFSET -5.241900 -0.000000 -0.000000 
					CHANNELS 3 Zrotation Yrotation Xrotation
					JOINT RightHand
					{
						OFFSET -3.444170 -0.000000 -0.000000 
						CHANNELS 3 Zrotation Yrotation Xrotation
						JOINT RightHandIndex1
						{
							OFFSET -0.622530 -0.000000 -0.000000 
							CHANNELS 3 Zrotation Yrotation Xrotation
							End Site
							{
								OFFSET 0.000000 0.000000 0.000000 
							}
						}
					}
				}
			}
		}
	}
}
MOTION
Frames: 15
Frame Time: 0.041667
2.822725 19.160844 2.103907 112.596405 -85.169826 -104.136579 -38.588321 4.451621 11.822245 -6.683606 11.225179 34.592651 -5.049742 20.881451 -7.401659 4.586000 -12.901800 -39.002000 19.078867 22.001486 -21.273850 12.252295 -5.959296 4.563810 5.120887 -18.540511 -3.763284 -5.498300 13.923900 -42.933400 0.382777 -3.732508 -5.260203 -3.566784 -2.178382 -14.288804 1.119066 5.424515 12.252965 -3.527400 2.691700 13.480000 -70.630443 -3.505068 58.278424 131.620285 -43.624381 -97.715431 -1.882476 0.037931 0.181722 -7.125000 0.000000 0.000000 79.406628 -44.690299 40.027342 -20.091828 35.794108 -6.540574 1.330101 -1.116266 -10.075106 7.125000 0.000000 0.000000 
1.791711 19.015933 2.073846 108.459018 -84.605267 -100.503591 -37.958282 6.324072 9.169876 -4.345216 13.273128 41.516617 -4.330705 18.771314 -9.104315 4.467200 -12.757400 -38.466900 19.417679 22.366423 -18.872317 12.149422 -5.941055 5.585441 5.594884 -19.891516 -2.600824 -5.985900 14.414600 -44.924900 0.259759 -3.663845 -5.228095 -4.228356 -2.237253 -14.163676 0.900584 5.603015 12.181618 -3.549700 2.711300 13.534900 -71.471530 -1.140240 59.318022 131.374356 -43.895372 -97.255634 -1.861633 -0.052563 -2.667480 -7.125000 0.000000 0.000000 79.438130 -43.646355 40.721007 -20.529261 36.266638 -6.689933 1.338710 -1.129179 -11.145709 7.125000 0.000000 0.000000 
0.778137 18.786691 2.038278 106.520416 -84.409740 -99.352702 -36.975766 7.707212 6.682373 -1.789844 15.059246 48.801473 -3.241436 15.800614 -11.507013 4.266100 -12.506300 -37.547400 21.139429 19.941654 -15.996190 12.058747 -5.269046 5.727191 5.682918 -21.571495 3.566055 -6.214900 14.633400 -45.838100 0.185992 -3.394346 -5.195408 -4.630623 -2.175123 -14.366711 0.584609 5.741071 11.888827 -3.565500 2.658200 13.311700 -72.693266 1.295566 59.718368 129.819502 -44.816786 -95.686452 -1.821645 -0.145227 -6.689492 -7.125000 0.000000 0.000000 79.409729 -42.141397 41.323963 -21.405371 37.127436 -7.130264 1.429092 -1.084638 -12.017352 7.125000 0.000000 0.000000 
-0.189199 18.494575 2.009020 105.605288 -84.628853 -99.554888 -35.936969 8.333788 4.137973 0.509626 16.394033 55.105847 -1.355061 10.162354 -13.856271 4.189200 -12.407900 -37.190800 23.655688 14.296371 -14.925576 11.822026 -5.794050 8.443304 4.578526 -19.424697 8.549790 -2.880300 10.498700 -30.607400 0.169000 -2.990236 -5.173709 -4.837106 -2.035444 -15.154622 0.008642 5.868654 11.329358 -3.745400 2.563700 12.792100 -74.263841 4.650036 59.076590 127.054942 -46.231813 -93.087698 -1.794436 -0.260691 -8.436695 -7.125000 0.000000 0.000000 79.312298 -39.871987 41.809152 -21.995933 37.591676 -7.397812 1.418143 -1.187919 -13.432913 7.125000 0.000000 0.000000 
-1.102150 18.175495 1.992728 106.292656 -85.255419 -101.686887 -34.965135 8.351038 1.753166 2.826605 17.525161 61.228485 0.332387 5.523783 -16.592151 4.025700 -12.194500 -36.423500 25.941262 12.680856 -14.438079 11.313268 -8.047830 14.684255 2.266883 -10.716162 5.970556 -0.284600 3.431000 -9.481200 0.177071 -2.405534 -5.116597 -5.003377 -1.816230 -16.211200 -0.652947 5.882360 10.694517 -3.918200 2.385600 12.234900 -75.992109 7.587933 57.888731 121.744699 -48.431956 -88.194408 -1.866360 -0.112989 -7.922516 -7.125000 0.000000 0.000000 79.170247 -36.446301 41.916917 -22.882735 38.301826 -7.863442 1.480281 -1.213987 -13.939705 7.125000 0.000000 0.000000 
-1.972420 17.904031 1.986647 -174.478499 -88.892487 178.683885 -29.466464 6.718697 -3.431890 5.102122 18.236121 65.647973 2.049549 -0.460499 -17.033257 4.380300 -12.650000 -38.071900 33.298417 12.362619 -13.821767 11.280749 -10.471060 20.029558 1.019063 -5.963519 0.169780 -0.283400 3.424100 -9.461700 0.382079 -1.056469 -5.071997 -6.010467 -1.719983 -17.019006 -1.212125 5.791097 10.141283 -3.851800 2.131800 11.810600 -77.705233 10.530242 55.447360 115.705227 -50.476092 -82.544905 -1.865910 0.066495 -2.681599 -7.125000 0.000000 0.000000 78.639200 -32.379180 41.435591 -24.036782 39.274522 -8.489172 1.606788 -1.154075 -12.394277 7.125000 0.000000 0.000000 
-2.776257 17.845286 1.982861 -120.853230 -82.885458 127.076499 -22.861444 5.699569 -13.160785 7.261074 19.637060 69.746967 -0.078793 4.838255 -13.098785 5.837300 -14.268800 -44.325200 40.989357 12.193413 -14.312914 11.332517 -12.233790 23.233426 -0.088944 -1.208144 -3.200556 -0.295800 3.497100 -9.666000 0.585354 1.551253 -5.257350 -7.067798 -0.976358 -18.008764 -1.747293 5.638009 9.651496 -3.835300 1.885800 11.577100 -79.177599 14.664016 52.650384 112.094907 -51.542733 -79.517049 -2.019023 0.190970 2.421439 -7.125000 0.000000 0.000000 77.762607 -28.490929 40.782060 -26.571951 41.159822 -9.760794 1.665445 -1.234325 -11.094242 7.125000 0.000000 0.000000 
-3.625760 17.879592 1.985385 -130.668209 -82.605222 137.316041 -23.205330 3.672865 -19.045453 9.175497 21.244580 73.012431 4.184162 -10.349551 -14.062569 4.948400 -13.325400 -40.599200 40.351252 10.513607 -11.774262 11.189003 -11.344983 22.610326 -0.461165 0.659195 -2.513020 -0.322400 3.649600 -10.092900 0.545831 2.465597 -5.359607 -6.718335 -0.496511 -18.915714 -2.007983 5.474014 9.303389 -3.776100 1.671300 11.538200 -79.976295 19.873796 49.867276 111.414249 -51.818884 -79.202529 -2.057344 0.174946 3.409581 -7.125000 0.000000 0.000000 77.016640 -24.679185 39.371353 -30.103318 43.586143 -11.829247 1.722750 -1.326428 -10.743902 7.125000 0.000000 0.000000 
-4.492931 17.946712 1.957504 -137.785767 -82.521882 144.343815 -23.231683 0.867700 -23.551630 9.701128 22.631180 73.750570 4.824179 -13.742896 -13.893638 4.967400 -13.347000 -40.681800 39.419629 8.358313 -8.460260 11.104418 -10.069765 21.444135 -0.649039 1.629267 -1.637025 -0.231200 3.094700 -8.542400 0.587136 3.026648 -5.430333 -5.772161 0.017002 -19.187063 -2.054521 5.175531 9.036217 -3.729000 1.450100 11.540700 -80.828234 24.743118 46.726759 112.895626 -51.597866 -80.778639 -1.932300 0.242935 1.443603 -7.125000 0.000000 0.000000 76.429961 -20.893172 37.849543 -34.904705 46.544317 -14.731191 1.804819 -1.352206 -11.648741 7.125000 0.000000 0.000000 
-5.426994 18.006834 1.925034 -142.719185 -82.152489 149.307221 -22.776259 -1.664848 -27.636808 8.491269 23.817730 70.935029 3.806563 -7.755690 -13.902202 6.271000 -14.685900 -46.059700 38.847070 6.871451 -5.853432 10.726416 -9.686953 22.054963 -0.987716 3.312270 -1.840722 -0.170200 2.657800 -7.327500 0.607456 3.589726 -5.327089 -4.882042 0.568831 -19.165179 -1.963467 4.668404 8.796151 -3.709000 1.200100 11.434900 -81.683494 29.329850 44.073617 115.083887 -51.121035 -83.115490 -1.953428 0.104982 -1.031552 -7.125000 0.000000 0.000000 76.030900 -17.435664 36.025823 -41.278077 49.870110 -18.803313 1.892724 -1.359018 -12.652644 7.125000 0.000000 0.000000 
-6.396739 18.106654 1.875697 -143.805907 -81.757308 149.942223 -21.683309 -4.459454 -30.163567 6.877569 24.469988 65.863775 4.758875 -10.715024 -13.423777 5.584300 -14.013100 -43.289700 39.544693 7.184126 -1.049622 10.858566 -8.731849 21.363220 -1.223097 4.190907 -4.122775 -0.363400 3.872400 -10.718100 0.681395 4.111606 -5.261279 -3.853902 1.108151 -19.013768 -1.791664 4.016379 8.601575 -3.696200 0.913300 11.228500 -82.271714 33.530139 41.946236 116.481651 -50.811253 -84.597783 -1.951421 -0.018469 -2.601356 -7.125000 0.000000 0.000000 75.602956 -14.473155 34.376203 -48.821737 52.957358 -24.080250 1.979465 -1.352797 -13.930243 7.125000 0.000000 0.000000 
-7.406986 18.225749 1.819477 -142.518252 -81.679641 148.373810 -20.349275 -7.608501 -31.802293 4.419649 24.656256 58.884026 5.756435 -12.963994 -13.516888 5.002200 -13.386300 -40.832400 40.612138 7.708837 4.259155 11.336341 -7.382334 19.662264 -1.019479 2.906431 -5.931946 -0.382200 3.970400 -10.993500 0.750572 4.462018 -5.207667 -2.906144 1.540547 -18.609629 -1.615330 3.339573 8.563716 -3.691000 0.615000 11.090800 -82.362702 36.814400 40.555566 115.559913 -51.172408 -83.877852 -1.967955 -0.029947 -3.399104 -7.125000 0.000000 0.000000 74.838310 -12.158510 33.735469 -56.906472 55.359930 -30.185148 2.089138 -1.307829 -14.580013 7.125000 0.000000 0.000000 
-8.451768 18.355286 1.765781 -140.502273 -82.034790 146.348122 -18.990074 -10.938399 -32.626499 1.010930 24.073947 50.177115 6.307140 -12.595084 -14.144561 5.082100 -13.475700 -41.176200 41.734000 8.424567 9.926407 12.101003 -5.608513 16.947367 -0.496599 -0.078052 -7.484763 -0.509500 4.575600 -12.702000 0.781833 4.574590 -5.172924 -2.126173 1.830198 -17.934790 -1.385729 2.704699 8.713114 -3.620300 0.329200 11.125200 -81.972283 39.795896 39.430535 115.159693 -51.396575 -83.729838 -1.982669 -0.020277 -3.455755 -7.125000 0.000000 0.000000 73.727900 -10.412446 34.018050 -66.163761 56.966307 -37.328583 2.143154 -1.348286 -15.516606 7.125000 0.000000 0.000000 
-9.526955 18.492395 1.722640 -140.317872 -82.494161 146.367206 -17.541474 -14.526729 -32.446296 -3.090550 22.279454 40.001234 6.340707 -11.143025 -14.045967 5.226400 -13.634300 -41.791700 42.607347 9.014722 15.388348 12.889045 -3.784575 14.115451 0.290006 -4.277498 -8.476221 -0.700800 5.351000 -14.912300 0.660525 4.816290 -5.175969 -2.086948 2.081508 -17.223221 -0.957960 1.852167 8.951041 -3.318900 -0.040700 11.183300 -80.347511 42.456166 39.239746 114.682178 -51.617413 -83.613588 -1.946686 -0.025293 -3.110056 -7.125000 0.000000 0.000000 72.805851 -9.681032 34.796688 -75.828707 57.628872 -45.307761 2.263577 -1.296897 -14.763608 7.125000 0.000000 0.000000 
-10.626467 18.644075 1.702561 -139.871132 -82.952685 146.161323 -15.636801 -19.008225 -30.818642 -7.574366 18.670960 28.458251 4.131313 -4.423610 -13.053640 6.606200 -14.991200 -47.368900 43.264041 8.888563 20.317935 13.649629 -1.994842 11.237486 1.377591 -9.579259 -8.250077 -0.706500 5.372000 -14.972800 0.508269 5.067997 -5.208347 -2.206435 2.284138 -16.605112 -0.494452 1.002474 9.298456 -2.905700 -0.429700 11.295400 -78.468605 44.759115 39.564700 113.848216 -51.905080 -83.143304 -1.900333 -0.041149 -2.729440 -7.125000 0.000000 0.000000 71.617400 -9.963366 36.485256 -85.276498 57.275139 -53.449677 2.247375 -1.453648 -13.438936 7.125000 0.000000 0.000000 
